# Blender 4.1.0
# www.blender.org
mtllib grass.mtl
o Plane
v -0.007183 0.000000 0.000000
v 0.018131 0.000000 0.000000
v 0.002475 0.374531 -0.043264
v -0.003398 0.197824 -0.007664
v 0.009854 0.198472 -0.007664
v -0.005394 0.093485 -0.000000
v 0.014292 0.092042 -0.000000
v -0.001200 0.312656 -0.026724
v 0.005090 0.312702 -0.026724
v 0.005196 0.000865 0.012691
v 0.003082 0.198616 -0.001904
v 0.004233 0.093587 0.009443
v 0.001876 0.312416 -0.024961
vn -0.0059 0.0324 0.9995
vn 0.6948 0.0307 0.7185
vn 0.6848 0.0554 0.7266
vn -0.0103 0.0689 0.9976
vn -0.0116 0.1488 0.9888
vn 0.6329 0.1235 0.7643
vn 0.5162 0.2097 0.8304
vn -0.0161 0.2348 0.9719
vn -0.0017 0.2827 0.9592
vn -0.6984 0.0421 0.7145
vn -0.6536 0.1064 0.7493
vn -0.5376 0.2055 0.8178
vn -0.7094 0.0154 0.7046
vt 0.489015 0.000000
vt 1.000000 0.000000
vt 0.754814 0.245186
vt 0.369103 0.247150
vt 0.230464 0.527819
vt 0.471300 0.528700
vt 0.167009 0.832991
vt 0.081658 0.832929
vt 0.000000 1.000000
vt 0.000000 0.249030
vt 0.000000 0.526975
vt 0.000000 0.832869
vt 0.000000 0.000000
s 1
usemtl Material.002
f 10/1/1 2/2/2 7/3/3 12/4/4
f 11/5/5 5/6/6 9/7/7 13/8/8
f 12/4/4 7/3/3 5/6/6 11/5/5
f 13/8/8 9/7/7 3/9/9
f 6/10/10 12/4/4 11/5/5 4/11/11
f 4/11/11 11/5/5 13/8/8 8/12/12
f 1/13/13 10/1/1 12/4/4 6/10/10
f 8/12/12 13/8/8 3/9/9
