# Blender 4.1.0
# www.blender.org
mtllib grass.mtl
o Plane
v -0.007183 0.000000 0.000000
v 0.015656 0.000000 0.000000
v 0.000000 0.375396 -0.042841
v -0.003398 0.197824 -0.007664
v 0.007379 0.198472 -0.007664
v -0.005394 0.093485 -0.000000
v 0.011817 0.092042 -0.000000
v -0.001200 0.312656 -0.026724
v 0.002615 0.312702 -0.026724
vn -0.0000 -0.0000 1.0000
vn 0.0009 0.0334 0.9994
vn 0.0011 0.0378 0.9993
vn -0.0026 0.1162 0.9932
vn -0.0029 0.1190 0.9929
vn -0.0055 0.2059 0.9786
vn -0.0055 0.2058 0.9786
vn -0.0030 0.2489 0.9685
vt 0.000000 0.000000
vt 1.000000 0.000000
vt 0.754814 0.245186
vt 0.000000 0.249030
vt 0.000000 0.526975
vt 0.471300 0.528700
vt 0.167009 0.832991
vt 0.000000 0.832869
vt 0.000000 1.000000
s 1
usemtl Material.002
f 1/1/1 2/2/1 7/3/2 6/4/3
f 4/5/4 5/6/5 9/7/6 8/8/7
f 6/4/3 7/3/2 5/6/5 4/5/4
f 8/8/7 9/7/6 3/9/8
